# xmcd
# 
# Track frame offsets:
#     150
#     42339
#     71330
#     90103
#     131020
#     146205
#     233630
# 
# Disc length: 3433
# 
# Revision: 0
# Processed by: cddbd v1.5.2PL0 Copyright (c) Steve Scherf et al.
# Submitted via: BonkEnc v1.0.15
# 
DISCID=570d6707
DTITLE=Plunge with Bobo Stenson - Origo
DYEAR=2008
DGENRE=Contemporary Jazz
TTITLE0=Alea Iacta Est
TTITLE1=Clement
TTITLE2=Brief Excursion
TTITLE3=Origo
TTITLE4=Giordaniesque
TTITLE5=Meramorphing
TTITLE6=Wee Farewell
EXTD=
EXTT0=
EXTT1=
EXTT2=
EXTT3=
EXTT4=
EXTT5=
EXTT6=
PLAYORDER=
